<?xml version="1.0" encoding="UTF-8" standalone="no"?>
<!-- Created with Inkscape (http://www.inkscape.org/) -->

<svg
   width="26.458336mm"
   height="32.014465mm"
   viewBox="0 0 26.458336 32.014465"
   version="1.1"
   id="svg5"
   xml:space="preserve"
   xmlns:inkscape="http://www.inkscape.org/namespaces/inkscape"
   xmlns:sodipodi="http://sodipodi.sourceforge.net/DTD/sodipodi-0.dtd"
   xmlns:xlink="http://www.w3.org/1999/xlink"
   xmlns="http://www.w3.org/2000/svg"
   xmlns:svg="http://www.w3.org/2000/svg"><sodipodi:namedview
     id="namedview7"
     pagecolor="#505050"
     bordercolor="#eeeeee"
     borderopacity="1"
     inkscape:showpageshadow="0"
     inkscape:pageopacity="0"
     inkscape:pagecheckerboard="0"
     inkscape:deskcolor="#505050"
     inkscape:document-units="mm"
     showgrid="false" /><defs
     id="defs2"><linearGradient
       x1="22.004084"
       y1="47.813133"
       x2="22.004084"
       y2="3.3638515"
       id="linearGradient3046"
       xlink:href="#linearGradient3104-5"
       gradientUnits="userSpaceOnUse"
       gradientTransform="matrix(2.6571407,0,0,2.6479618,-3.995257,-71.610255)" /><linearGradient
       id="linearGradient3104-5"><stop
         id="stop3106-2"
         style="stop-color:#aaaaaa;stop-opacity:1"
         offset="0" /><stop
         id="stop3108-5"
         style="stop-color:#c8c8c8;stop-opacity:1"
         offset="1" /></linearGradient><linearGradient
       x1="23.99999"
       y1="5.5641499"
       x2="23.99999"
       y2="42.194839"
       id="linearGradient3016"
       xlink:href="#linearGradient3977"
       gradientUnits="userSpaceOnUse"
       gradientTransform="matrix(2.4594595,0,0,3.1081081,4.9729852,-78.594559)" /><linearGradient
       id="linearGradient3977"><stop
         id="stop3979"
         style="stop-color:#ffffff;stop-opacity:1"
         offset="0" /><stop
         id="stop3981"
         style="stop-color:#ffffff;stop-opacity:0.23529412"
         offset="0.00648027" /><stop
         id="stop3983"
         style="stop-color:#ffffff;stop-opacity:0.15686275"
         offset="0.99423188" /><stop
         id="stop3985"
         style="stop-color:#ffffff;stop-opacity:0.39215687"
         offset="1" /></linearGradient><linearGradient
       x1="25.132275"
       y1="0.98520643"
       x2="25.132275"
       y2="47.013336"
       id="linearGradient3019"
       xlink:href="#linearGradient3600"
       gradientUnits="userSpaceOnUse"
       gradientTransform="matrix(2.6571409,0,0,2.5422194,0.228619,-68.91283)" /><linearGradient
       id="linearGradient3600"><stop
         id="stop3602"
         style="stop-color:#f4f4f4;stop-opacity:1"
         offset="0" /><stop
         id="stop3604"
         style="stop-color:#dbdbdb;stop-opacity:1"
         offset="1" /></linearGradient><linearGradient
       x1="25.058096"
       y1="47.027729"
       x2="25.058096"
       y2="39.999443"
       id="linearGradient3024"
       xlink:href="#linearGradient3702-501-757-486"
       gradientUnits="userSpaceOnUse"
       gradientTransform="matrix(3.1428572,0,0,1.2857143,-11.428573,-2.428572)" /><linearGradient
       id="linearGradient3702-501-757-486"><stop
         id="stop3100"
         style="stop-color:#181818;stop-opacity:0"
         offset="0" /><stop
         id="stop3102"
         style="stop-color:#181818;stop-opacity:1"
         offset="0.5" /><stop
         id="stop3104"
         style="stop-color:#181818;stop-opacity:0"
         offset="1" /></linearGradient><radialGradient
       cx="4.9929786"
       cy="43.5"
       r="2.5"
       fx="4.9929786"
       fy="43.5"
       id="radialGradient3027"
       xlink:href="#linearGradient3688-464-309-255"
       gradientUnits="userSpaceOnUse"
       gradientTransform="matrix(2.4045407,0,0,1.7999999,-32.014243,-131.8)" /><linearGradient
       id="linearGradient3688-464-309-255"><stop
         id="stop3094"
         style="stop-color:#181818;stop-opacity:1"
         offset="0" /><stop
         id="stop3096"
         style="stop-color:#181818;stop-opacity:0"
         offset="1" /></linearGradient><radialGradient
       cx="4.9929786"
       cy="43.5"
       r="2.5"
       fx="4.9929786"
       fy="43.5"
       id="radialGradient3097"
       xlink:href="#linearGradient3688-464-309-255"
       gradientUnits="userSpaceOnUse"
       gradientTransform="matrix(2.4045407,0,0,1.7999999,95.985757,-24.799999)" /></defs><g
     inkscape:label="Layer 1"
     inkscape:groupmode="layer"
     id="layer1"
     transform="translate(-74.055445,-131.748)"><g
       transform="matrix(0.26458333,0,0,0.26458333,70.351278,148.41663)"
       id="layer1-9"><rect
         width="6"
         height="8.999999"
         x="108"
         y="49"
         id="rect2801"
         style="opacity:0.4;fill:url(#radialGradient3097);fill-opacity:1;stroke:none" /><rect
         width="6"
         height="8.999999"
         x="-20"
         y="-58"
         transform="scale(-1)"
         id="rect3696"
         style="opacity:0.4;fill:url(#radialGradient3027);fill-opacity:1;stroke:none" /><rect
         width="88"
         height="9"
         x="20"
         y="49"
         id="rect3700"
         style="opacity:0.4;fill:url(#linearGradient3024);fill-opacity:1;stroke:none" /><path
         d="m 17.499929,-62.499588 c 21.311061,0 93.000031,0.007 93.000031,0.007 l 1.1e-4,116.992628 c 0,0 -62.0001,0 -93.00014,0 0,-39.000029 0,-78.000054 0,-117.000079 z"
         id="path4160"
         style="display:inline;fill:url(#linearGradient3019);fill-opacity:1;stroke:none" /><path
         d="m 109.5,53.5 h -91 V -61.500003 h 91 z"
         id="rect6741-1"
         style="fill:none;stroke:url(#linearGradient3016);stroke-width:1;stroke-linecap:round;stroke-linejoin:round;stroke-miterlimit:4;stroke-dasharray:none;stroke-dashoffset:0;stroke-opacity:1" /><path
         d="m 17.499929,-62.499588 c 21.311061,0 93.000031,0.007 93.000031,0.007 l 1.1e-4,116.992628 c 0,0 -62.0001,0 -93.00014,0 0,-39.000029 0,-78.000054 0,-117.000079 z"
         id="path4160-4"
         style="display:inline;opacity:0.3;fill:none;stroke:#000000;stroke-width:0.999922;stroke-linecap:butt;stroke-linejoin:round;stroke-miterlimit:4;stroke-dasharray:none;stroke-dashoffset:0;stroke-opacity:1" /><path
         d="m 30.5,-41.5 h 6.227673 z m 7.141065,0 h 5.812494 z m 6.725886,0 h 5.148211 z m 5.978568,0 h 2.241962 z m 3.155354,0 h 4.982139 z m 5.978566,0 h 13.119633 z m 13.949988,0 h 10.047314 z m 10.877672,0 h 3.072319 z M 30.5,-35.5 h 9.715169 z m 10.794632,0 h 4.649996 z m 5.480353,0 h 2.324999 z m 3.238391,0 h 4.234817 z m 5.148209,0 h 4.317854 z m 5.148211,0 h 6.891958 z m 7.80535,0 h 8.96785 z m 9.798207,0 h 5.978566 z m 6.808923,0 h 1.494643 z M 30.5,-29.541375 h 8.220527 z m 9.050885,0 h 13.451773 z m 14.28213,0 h 6.559816 z m 7.390173,0 h 6.144638 z m 6.974993,0 h 5.231246 z m 6.061603,0 8.22053,0.08275 z m 8.96785,0.08275 H 96.596373 Z M 30.5,-23.5 h 11.375882 z m 12.289274,0 H 55.07855 Z m 13.119633,0 h 4.899104 z m 5.729459,0 h 11.541956 z m 12.289276,0 h 7.888387 z m 8.801778,0 h 3.155356 z m 3.985711,0 h 1.743749 z m 2.657142,0 h 4.899103 z M 30.5,-17.5 h 4.234818 z m 5.563388,0 H 51.757124 Z M 30.5,-7.5 h 6.227673 z m 7.141065,0 h 5.729459 z m 6.725886,0 h 5.148211 z m 5.978568,0 h 2.241962 z m 3.155354,0 h 4.982139 z m 5.978566,0 h 13.036596 z m 13.949988,0 h 9.964279 z m 10.794634,0 h 3.155357 z m 3.985712,0 h 7.473208 z M 30.5,-1.5 h 10.462489 z m 11.292847,0 h 11.209811 z m 12.040168,0 h 4.317854 z m 5.148211,0 h 10.545527 z m 11.375882,0 h 13.285704 z m 14.199096,0 h 4.899104 z M 30.5,4.5 h 11.375882 z m 12.289274,0 H 55.07855 Z m 13.119633,0 h 4.899104 z m 5.729459,0 h 11.541956 z m 12.289276,0 h 7.888387 z m 8.801778,0 h 3.155356 z m 3.985711,0 h 1.743749 z m 2.657142,0 h 4.899103 z M 30.5,10.5 h 9.715169 z m 10.794632,0 h 4.649996 z m 5.480353,0 h 2.324999 z m 3.238391,0 h 4.234817 z m 5.148209,0 h 4.317854 z m 5.148211,0 h 6.891958 z m 7.80535,0 h 8.96785 z m 9.798207,0 h 5.978566 z m 6.808923,0 h 1.494643 z M 30.5,20.458635 h 8.220527 z m 9.050885,0 h 13.451773 z m 14.28213,0 h 6.559816 z m 7.390173,0 h 6.144638 z m 6.974993,0 h 5.231246 z m 6.061603,0 8.22053,0.08273 z m 8.96785,0.08273 H 96.596373 Z M 30.5,26.5 h 9.715169 z m 10.794632,0 h 4.649996 z m 5.480353,0 h 2.324999 z m 3.238391,0 h 4.234817 z m 5.148209,0 h 4.317854 z m 5.148211,0 h 6.891958 z m 7.80535,0 h 8.96785 z m 9.798207,0 h 5.978566 z m 6.808923,0 h 1.494643 z M 30.5,32.5 h 10.296419 z m 11.209811,0 h 3.23839 z m 4.068747,0 h 7.390172 z m 8.220528,0 h 10.877671 z m 11.791063,0 h 7.390173 z m 8.137493,0 h 1.577677 z m 2.408034,0 h 9.383028 z m 10.379455,0 h 4.899104 z M 30.5,38.5 h 10.296419 z m 11.209811,0 h 4.649997 z m 5.480352,0 H 54.4973 Z m 8.137494,0 h 7.888386 z m 8.801778,0 h 3.155354 z m 3.985711,0 h 1.743749 z m 2.657142,0 h 4.899103 z"
         id="path3475"
         style="fill:none;stroke:url(#linearGradient3046);stroke-width:1px;stroke-linecap:butt;stroke-linejoin:miter;stroke-opacity:1" /></g></g></svg>
